<?xml version="1.0" encoding="iso-8859-1"?>
<!-- Generator: Adobe Illustrator 19.0.0, SVG Export Plug-In . SVG Version: 6.00 Build 0)  -->
<svg version="1.1" id="Capa_1" xmlns="http://www.w3.org/2000/svg" xmlns:xlink="http://www.w3.org/1999/xlink" x="0px" y="0px"
	 viewBox="0 0 469.333 469.333" fill="#e55151" style="enable-background:new 0 0 469.333 469.333;" xml:space="preserve">
			<path d="M213.333,0c-5.896,0-10.667,4.771-10.667,10.667v77.656c0,20.646,14.167,38.198,33.688,41.74
				c52.094,9.458,93.458,50.823,102.917,102.917c3.542,19.521,21.094,33.687,41.74,33.687h77.656
				c5.896,0,10.667-4.771,10.667-10.667C469.333,114.844,354.49,0,213.333,0z M392.281,224.635
				c-0.833,0.188-1.656,0.281-2.469,0.281c-4.833,0-9.208-3.302-10.375-8.208c-14.729-62.302-64.5-112.073-126.813-126.823
				c-5.729-1.354-9.281-7.094-7.917-12.833c1.354-5.74,6.99-9.323,12.833-7.917c70.094,16.583,126.094,72.573,142.667,142.656
				C401.563,217.531,398.01,223.271,392.281,224.635z"/>
			<path d="M411.417,288H381.01c-30.969,0-57.354-21.542-62.719-51.229c-7.896-43.396-42.354-77.844-85.76-85.729
				c-29.667-5.365-51.198-31.75-51.198-62.719V57.917c0-3.219-1.458-6.271-3.958-8.292c-2.521-2.042-5.802-2.844-8.948-2.135
				C70.833,68.417,0,156.104,0,256c0,117.635,95.698,213.333,213.333,213.333c99.896,0,187.583-70.833,208.51-168.427
				c0.677-3.156-0.104-6.438-2.135-8.948C417.688,289.458,414.635,288,411.417,288z M117.333,128c17.646,0,32,14.354,32,32
				c0,17.646-14.354,32-32,32c-17.646,0-32-14.354-32-32C85.333,142.354,99.687,128,117.333,128z M117.333,384
				c-17.646,0-32-14.354-32-32c0-17.646,14.354-32,32-32c17.646,0,32,14.354,32,32C149.333,369.646,134.979,384,117.333,384z
				 M213.333,320c-35.292,0-64-28.708-64-64c0-35.292,28.708-64,64-64c35.292,0,64,28.708,64,64
				C277.333,291.292,248.625,320,213.333,320z M309.333,384c-17.646,0-32-14.354-32-32c0-17.646,14.354-32,32-32
				c17.646,0,32,14.354,32,32C341.333,369.646,326.979,384,309.333,384z"/>
</svg>
