<?xml version="1.0" encoding="iso-8859-1"?>
<!-- Generator: Adobe Illustrator 19.0.0, SVG Export Plug-In . SVG Version: 6.00 Build 0)  -->
<svg version="1.1" id="Capa_1" xmlns="http://www.w3.org/2000/svg" xmlns:xlink="http://www.w3.org/1999/xlink" x="0px" y="0px"
	 viewBox="0 0 512 512" fill="#e55151" style="enable-background:new 0 0 512 512;" xml:space="preserve">
		<path d="M480,213.333c-17.646,0-32,14.354-32,32v32h-21.333V237.25c0-11.229-4.552-22.229-12.5-30.167l-23.917-23.917
			c-7.938-7.948-18.938-12.5-30.167-12.5h-61.417V128h32c17.646,0,32-14.354,32-32s-14.354-32-32-32h-128c-17.646,0-32,14.354-32,32
			s14.354,32,32,32h32v42.667h-40.083c-11.229,0-22.229,4.552-30.167,12.5l-30.167,30.167h-16.917c-17.646,0-32,14.354-32,32v32H64
			v-32c0-17.646-14.354-32-32-32s-32,14.354-32,32v128c0,17.646,14.354,32,32,32s32-14.354,32-32v-32h21.333v32
			c0,17.646,14.354,32,32,32h16.917l30.167,30.167c7.938,7.948,18.938,12.5,30.167,12.5H338.75c11.229,0,22.229-4.552,30.167-12.5
			l45.25-45.25c7.948-7.938,12.5-18.938,12.5-30.167v-18.75H448v32c0,17.646,14.354,32,32,32c17.646,0,32-14.354,32-32v-128
			C512,227.688,497.646,213.333,480,213.333z"/>
</svg>
