<?xml version="1.0" encoding="iso-8859-1"?>
<!-- Generator: Adobe Illustrator 19.0.0, SVG Export Plug-In . SVG Version: 6.00 Build 0)  -->
<svg version="1.1" id="Capa_1" xmlns="http://www.w3.org/2000/svg" xmlns:xlink="http://www.w3.org/1999/xlink" x="0px" y="0px"
	 viewBox="0 0 469.333 469.333" fill="#e55151" style="enable-background:new 0 0 469.333 469.333;" xml:space="preserve">
			<path d="M298.665,102.651l-0.009-59.984c0-11.781-9.552-21.333-21.333-21.333H191.99c-5.656,0-11.083,2.25-15.083,6.25
				s-6.25,9.427-6.25,15.083l0.009,59.984c-38.194,22.173-63.999,63.426-63.999,110.682c0,70.583,57.417,128,128,128
				s128-57.417,128-128C362.667,166.076,336.861,124.824,298.665,102.651z M234.667,298.667c-47.052,0-85.333-38.281-85.333-85.333
				c0-47.052,38.281-85.333,85.333-85.333S320,166.281,320,213.333C320,260.385,281.719,298.667,234.667,298.667z"/>
			<path d="M245.333,384H224c-5.891,0-10.667,4.775-10.667,10.667v42.667c0,5.891,4.776,10.667,10.667,10.667h21.333
				c5.891,0,10.667-4.776,10.667-10.667v-42.667C256,388.775,251.224,384,245.333,384z"/>
			<path d="M64,224v-21.333C64,196.775,59.224,192,53.333,192H10.667C4.776,192,0,196.775,0,202.667V224
				c0,5.891,4.776,10.667,10.667,10.667h42.667C59.224,234.667,64,229.891,64,224z"/>
			<path d="M458.667,192H416c-5.891,0-10.667,4.775-10.667,10.667V224c0,5.891,4.776,10.667,10.667,10.667h42.667
				c5.891,0,10.667-4.776,10.667-10.667v-21.333C469.333,196.775,464.557,192,458.667,192z"/>
			<path d="M106.444,326.47c-4.165-4.165-10.919-4.165-15.085,0L61.19,356.641c-4.165,4.165-4.165,10.919,0,15.085l15.085,15.085
				c4.165,4.165,10.919,4.165,15.085,0l30.171-30.169c4.165-4.167,4.165-10.921,0-15.086L106.444,326.47z"/>
			<path d="M362.889,100.195c4.165,4.167,10.919,4.167,15.085,0l30.169-30.169c4.165-4.165,4.165-10.919,0-15.085l-15.085-15.085
				c-4.165-4.167-10.919-4.167-15.085,0l-30.171,30.169c-4.165,4.165-4.165,10.919,0,15.085L362.889,100.195z"/>
			<path d="M91.359,100.195c4.165,4.167,10.919,4.167,15.085,0l15.086-15.085c4.165-4.165,4.165-10.919,0-15.085L91.359,39.857
				c-4.165-4.167-10.919-4.167-15.085,0L61.19,54.941c-4.165,4.165-4.165,10.919,0,15.085L91.359,100.195z"/>
			<path d="M377.974,326.47c-4.165-4.165-10.919-4.165-15.085,0l-15.086,15.085c-4.165,4.165-4.165,10.919,0,15.086l30.171,30.169
				c4.165,4.165,10.919,4.165,15.085,0l15.085-15.085c4.165-4.165,4.165-10.919,0-15.085L377.974,326.47z"/>
</svg>
